<?xml version="1.0" encoding="utf-8"?>
<!-- Generator: Adobe Illustrator 25.4.1, SVG Export Plug-In . SVG Version: 6.00 Build 0)  -->
<svg version="1.1" id="Layer_1" xmlns="http://www.w3.org/2000/svg" xmlns:xlink="http://www.w3.org/1999/xlink" x="0px" y="0px"
	 viewBox="0 0 48 48" style="enable-background:new 0 0 48 48;" xml:space="preserve">
<path d="M11.1,35.2c2.1-1.5,4.2-2.6,6.2-3.4s4.3-1.2,6.6-1.2s4.6,0.4,6.7,1.2s4.2,1.9,6.3,3.4c1.5-1.8,2.5-3.6,3.1-5.5
	c0.7-1.7,1-3.7,1-5.7c0-4.8-1.6-8.9-4.9-12.1S28.8,7,24,7s-8.9,1.6-12.1,4.9S7,19.2,7,24c0,2,0.3,4,1,5.8
	C8.6,31.6,9.6,33.4,11.1,35.2z M24,25.5c-1.9,0-3.5-0.7-4.9-2c-1.3-1.3-2-2.9-2-4.9s0.7-3.5,2-4.9c1.3-1.3,2.9-2,4.9-2
	s3.5,0.7,4.9,2s2,2.9,2,4.9s-0.7,3.5-2,4.9C27.5,24.8,25.9,25.5,24,25.5z M24,44c-2.7,0-5.3-0.5-7.8-1.6s-4.6-2.5-6.4-4.3
	s-3.2-3.9-4.3-6.4S4,26.7,4,24s0.5-5.3,1.6-7.8c1-2.4,2.5-4.5,4.3-6.4s3.9-3.2,6.4-4.3S21.3,4,24,4s5.3,0.5,7.8,1.6s4.5,2.5,6.4,4.3
	s3.2,3.9,4.3,6.4c1.1,2.4,1.6,5,1.6,7.8s-0.5,5.3-1.6,7.8c-1,2.4-2.5,4.6-4.3,6.4s-3.9,3.2-6.4,4.3S26.8,44,24,44z M24,41
	c1.8,0,3.6-0.3,5.4-0.8s3.5-1.5,5.2-2.8c-1.7-1.2-3.4-2.1-5.2-2.8c-1.8-0.6-3.5-1-5.4-1c-1.8,0-3.6,0.3-5.4,1
	c-1.8,0.6-3.5,1.5-5.2,2.8c1.7,1.3,3.4,2.3,5.2,2.8S22.2,41,24,41z M24,22.5c1.1,0,2.1-0.4,2.8-1.1c0.7-0.7,1.1-1.6,1.1-2.8
	s-0.4-2.1-1.1-2.8s-1.6-1.1-2.8-1.1s-2.1,0.4-2.8,1.1c-0.7,0.7-1.1,1.6-1.1,2.8s0.4,2.1,1.1,2.8S22.9,22.5,24,22.5z"/>
</svg>
